<svg width="20" height="20" viewBox="0 0 20 20" fill="none" xmlns="http://www.w3.org/2000/svg">
<path d="M7.54548 18.1818C7.99735 18.1818 8.36366 17.8155 8.36366 17.3636C8.36366 16.9118 7.99735 16.5455 7.54548 16.5455C7.09361 16.5455 6.72729 16.9118 6.72729 17.3636C6.72729 17.8155 7.09361 18.1818 7.54548 18.1818Z" stroke="#9B9B9B" stroke-width="2" stroke-linecap="round" stroke-linejoin="round"/>
<path d="M16.5455 18.1818C16.9973 18.1818 17.3637 17.8155 17.3637 17.3636C17.3637 16.9118 16.9973 16.5455 16.5455 16.5455C16.0936 16.5455 15.7273 16.9118 15.7273 17.3636C15.7273 17.8155 16.0936 18.1818 16.5455 18.1818Z" stroke="#9B9B9B" stroke-width="2" stroke-linecap="round" stroke-linejoin="round"/>
<path d="M1 1H4.27273L6.46545 11.9555C6.54027 12.3321 6.7452 12.6705 7.04436 12.9113C7.34351 13.1522 7.71784 13.2801 8.10182 13.2727H16.0545C16.4385 13.2801 16.8129 13.1522 17.112 12.9113C17.4112 12.6705 17.6161 12.3321 17.6909 11.9555L19 5.09091H5.09091" stroke="#9B9B9B" stroke-width="2" stroke-linecap="round" stroke-linejoin="round"/>
<path d="M7.02905 6.5101C7.16349 6.52504 7.38709 6.64438 7.48443 6.73646C7.62557 6.86997 7.58404 7.10139 7.53769 7.2664C7.49906 7.4039 7.49629 7.53774 7.37258 7.43417C7.23253 7.31692 7.05302 7.10104 7.05302 6.90556C7.05302 6.76805 7.20586 6.67843 7.32997 6.64458C7.68253 6.54843 8.20689 6.69198 8.46176 6.94684C8.83489 7.31997 8.94137 8.30564 8.36056 8.54598C8.21402 8.60661 7.99797 8.6472 7.93182 8.46076C7.81697 8.13712 8.05283 7.71466 8.30331 7.52871C8.89269 7.09113 9.81226 7.29548 10.3725 7.69781C10.9313 8.09913 11.223 8.84214 10.9543 9.50067C10.8127 9.84799 10.6298 10.0439 10.2513 10.0333C9.98022 10.0256 9.79618 9.7428 9.74932 9.50333C9.50492 8.25417 10.9792 7.52035 12.0435 7.82031C12.5646 7.96716 13.1326 8.40882 13.2259 8.97339C13.2865 9.33979 13.2163 9.71487 12.8051 9.80159C12.1638 9.93687 11.4227 9.50522 10.9623 9.10921C10.5272 8.73486 10.3214 8.16584 10.6161 7.62724C11.1362 6.67684 12.781 7.43759 12.3258 8.43546C12.082 8.96982 10.7456 8.93656 10.989 8.20644C11.2026 7.56561 11.9983 7.24908 12.6161 7.21048C13.3621 7.16385 14.1419 7.31146 14.7158 7.81365C14.9671 8.03345 14.9764 8.30172 14.7265 8.52467C14.2818 8.92145 13.5492 8.9717 12.9889 8.82426C12.682 8.7435 12.6562 8.5611 12.7679 8.28101C13.0655 7.534 13.9439 7.18304 14.6879 7.08931C15.0542 7.04316 15.4813 7.01668 15.8277 7.16787C16.0908 7.28274 16.3457 7.49586 16.5254 7.71778C16.8038 8.06171 16.9454 8.54264 16.5334 8.84823C16.1096 9.16249 15.3299 9.14105 14.9142 8.83225C14.7779 8.73095 14.6166 8.59735 14.5334 8.44478C14.4849 8.35573 14.5404 8.23383 14.5707 8.14786C14.6632 7.88514 14.8249 7.68513 15.0341 7.50341C15.498 7.10041 16.2301 6.90764 16.8343 6.91754C17.2249 6.92395 17.1591 7.3718 17.1405 7.65919C17.1233 7.92597 16.9451 8.23824 16.6532 8.25837C16.3343 8.28037 16.1513 8.16228 16.07 7.84694C15.9953 7.55729 16.0157 7.23698 16.2857 7.06135C16.4297 6.96763 16.6244 6.94417 16.793 6.94417C16.9865 6.94417 17.051 7.03469 17.0953 7.21181C17.2021 7.63909 17.1198 8.11576 16.9368 8.51136C16.765 8.88262 16.4039 9.33432 15.9968 9.46605C15.8249 9.52164 15.838 9.32776 15.8996 9.20907C15.9641 9.08467 16.2122 8.94074 16.2804 9.11719C16.4982 9.68089 16.091 10.3571 15.4788 10.4141C15.3168 10.4292 15.1957 10.4303 15.1792 10.249C15.1695 10.1421 15.2088 9.91686 15.3749 9.9667C15.6196 10.0401 15.7482 10.4691 15.7717 10.6937C15.8011 10.9744 15.6611 11.2692 15.4176 11.418C15.3024 11.4884 14.9774 11.5323 14.8716 11.418C14.7634 11.3012 14.8935 11.0393 14.9808 10.952C15.1199 10.8129 15.4722 10.6824 15.6546 10.8242C15.7737 10.9169 15.7486 11.1402 15.6519 11.237C15.4658 11.4231 15.0355 11.3233 14.8264 11.2396C14.6323 11.162 14.0275 10.9866 14.0275 10.7177C14.0275 10.6128 14.1267 10.5605 14.2205 10.5605C14.3653 10.5605 14.3831 10.7354 14.3603 10.8495C14.2801 11.2507 13.4317 11.0924 13.2073 10.9627C13.1105 10.9068 13.0595 10.8128 13.1167 10.7044C13.1509 10.6396 13.4844 10.4727 13.4989 10.5885C13.5719 11.1728 12.4086 10.9222 12.1527 10.8082C12.0441 10.7598 11.6787 10.6355 11.6787 10.4886C11.6787 10.3763 11.7974 10.3213 11.8997 10.3022C12.0338 10.2773 12.1019 10.3599 12.0089 10.4886C11.9028 10.6356 11.617 10.5946 11.4643 10.5819C11.3469 10.5721 10.4287 10.307 10.8159 10.1291C11.1966 9.95421 11.2639 10.5955 11.1261 10.8109C11.0248 10.9692 10.7917 10.9525 10.6255 10.9427C10.463 10.9331 10.4564 10.8984 10.4564 10.7523C10.4564 10.5093 10.7466 10.4306 10.9357 10.3928C11.0727 10.3654 11.3056 10.299 11.3485 10.4753C11.492 11.0655 10.2959 10.8536 10.0383 10.6671C9.95812 10.609 9.87601 10.4864 9.94239 10.3821C9.98359 10.3174 10.237 10.2697 10.2407 10.3635C10.2521 10.6602 9.72724 10.7011 9.52164 10.6511C9.33214 10.605 9.31209 10.4803 9.33522 10.3022C9.36859 10.0453 9.84166 9.9278 10.0582 9.99998C10.2227 10.0548 10.1687 10.2791 10.1687 10.4128C10.1687 10.6338 9.93616 10.7938 9.73201 10.8002C9.57379 10.8052 9.32594 10.8424 9.258 10.6564C9.21643 10.5427 9.18596 10.3428 9.21273 10.2223C9.2559 10.0281 9.48205 9.96137 9.65079 9.96137C9.84768 9.96137 9.88114 10.0752 9.88114 10.261C9.88114 10.4388 9.87412 10.703 9.67476 10.7842C9.42482 10.8861 9.16456 10.7075 8.95708 10.5978C8.49982 10.3561 9.12356 9.99358 9.30327 10.2503C9.37771 10.3567 9.42034 10.6804 9.3512 10.7989C9.24881 10.9744 9.08908 10.996 8.90382 10.992C8.76466 10.9889 8.61569 10.8503 8.58159 10.7177C8.5363 10.5415 8.62094 10.3597 8.73605 10.225C8.77664 10.1775 9.13464 9.94954 9.16745 10.0626C9.22359 10.2559 9.20993 10.5714 9.02898 10.7017C8.74128 10.9088 8.02749 10.5801 8.1129 10.1957C8.15686 9.99791 8.39138 9.89296 8.57627 9.88947C8.82827 9.88471 8.83991 10.2031 8.84922 10.4034C8.86188 10.6756 8.76693 10.8409 8.5989 11.0386C8.51764 11.1342 8.25084 11.1742 8.13287 11.1211C8.02865 11.0742 8.02025 10.8827 8.04899 10.7882C8.13312 10.5118 8.66166 10.5357 8.84523 10.6671C9.00153 10.7789 9.07027 11.0796 8.92246 11.2316C8.76078 11.3979 8.59537 11.1293 8.52434 11.0119C8.30994 10.6577 8.07404 9.80892 8.72007 9.72703C8.99777 9.69182 9.06888 9.87181 9.09555 10.1052C9.10366 10.1761 9.1394 10.2625 9.03963 10.2716C8.94707 10.28 8.84198 10.2779 8.75469 10.2437C8.56912 10.1709 8.4545 10.0192 8.34458 9.86151C8.19503 9.64693 8.02784 9.40288 7.96111 9.14649C7.91404 8.96564 7.89543 8.69853 7.99173 8.53C8.11718 8.31048 8.49663 8.29211 8.71208 8.28767C9.11948 8.27927 9.68941 8.54147 9.68941 9.01201C9.68941 9.37776 9.35819 9.58876 9.00767 9.51398C8.45432 9.39594 8.08318 8.9237 8.16616 8.36356C8.20845 8.0781 8.40776 7.84642 8.61887 7.66319C9.05726 7.2827 9.6531 7.1328 10.2247 7.1439C10.7937 7.15495 11.3396 7.32582 11.8411 7.58862C12.1758 7.76399 12.548 8.0035 12.7119 8.35957C12.9563 8.89049 12.074 8.82691 11.7945 8.78032C11.4096 8.71617 11.033 8.53298 10.7147 8.3103C10.5224 8.17583 10.2381 7.97252 10.2473 7.7058C10.2568 7.43147 10.5323 7.17191 10.7519 7.04271C10.9963 6.89897 11.2844 6.82018 11.5535 6.73912C11.9329 6.62483 12.3184 6.51881 12.7146 6.48347C13.2949 6.43171 13.9464 6.46389 14.4695 6.74312C14.6236 6.82538 15.0155 7.04527 14.8876 7.2877C14.7748 7.50154 14.4828 7.61283 14.2591 7.64588C13.6954 7.72915 13.0771 7.70925 12.5109 7.66718C12.0755 7.63484 11.6699 7.51313 11.2606 7.37026C11.1918 7.34623 11.1047 7.3525 11.2127 7.28504C11.5195 7.09324 11.9278 7.03285 12.2752 6.96548C12.563 6.90967 12.9069 6.82167 13.1886 6.82167" stroke="#9B9B9B" stroke-width="3" stroke-linecap="square"/>
</svg>
